<?xml version="1.0" standalone="no"?><!DOCTYPE svg PUBLIC "-//W3C//DTD SVG 1.1//EN" "http://www.w3.org/Graphics/SVG/1.1/DTD/svg11.dtd"><svg t="1547998163303" class="icon" style="" viewBox="0 0 1024 1024" version="1.1" xmlns="http://www.w3.org/2000/svg" p-id="5017" xmlns:xlink="http://www.w3.org/1999/xlink" width="128" height="128"><defs><style type="text/css"></style></defs><path d="M515.68 1000.048c-322.656 0-483.984-161.328-483.984-484.032 0-322.672 161.328-484 483.984-484 322.672 0 484 161.328 484 484 0 322.704-161.328 484.032-484 484.032z" fill="#4EC253" p-id="5018"></path><path d="M742.736 252.656c-112.752-41.008-205.008 87.136-205.008 87.136s0-107.632 133.264-153.76c5.12-20.496-117.888-56.384-174.256 20.512-35.888 56.368-15.376 123.008-15.376 123.008s-102.496-128.144-230.64-46.128c-123.008 76.88-92.272 92.256-92.272 92.256s189.648-76.88 256.272-20.496c35.888 35.872-261.392 30.752-184.512 266.544 0 5.104 20.512 15.36 25.632 5.104 25.632-82 123.024-240.912 225.52-158.896 0 0 35.872 15.376 71.744-15.376 25.648-20.512 158.896 25.632 199.904 205.024 25.616 10.256 71.728-215.28-35.872-256.288-102.528-35.872-153.76-10.256-153.76-10.256s138.384-148.64 307.52 61.504c20.48-20.512-15.408-158.88-128.16-199.888m0 0z" fill="#FFFFFF" p-id="5019"></path><path d="M578.736 549.952c10.256-10.256-20.512-82.016-20.512-82.016s-41.008 20.512-61.488 15.376c0 0 15.36 46.144 10.24 61.52 0 0 61.504 10.24 71.76 5.12m0 0zM512.096 565.328v81.984s51.264 20.512 76.896 5.136c25.616-15.376-5.12-82-5.12-82s-66.656 5.12-71.776-5.12m0 0zM501.856 672.96s-10.256 71.76-25.632 71.76c-15.376 0 97.392 30.736 112.768 5.12 15.36-25.632 0-71.76 0-71.76s-82.016-10.256-87.136-5.12m0 0zM465.984 775.456s-41.024 61.52-46.144 71.76c-5.12 10.272 92.256 35.872 133.248 20.496 41.008-15.376 25.648-82 25.648-82s-117.888-5.12-112.752-10.256m0 0z" fill="#FFFFFF" p-id="5020"></path></svg>