<?xml version="1.0" standalone="no"?><!DOCTYPE svg PUBLIC "-//W3C//DTD SVG 1.1//EN" "http://www.w3.org/Graphics/SVG/1.1/DTD/svg11.dtd"><svg t="1548034326549" class="icon" style="" viewBox="0 0 1024 1024" version="1.1" xmlns="http://www.w3.org/2000/svg" p-id="2031" xmlns:xlink="http://www.w3.org/1999/xlink" width="32" height="32"><defs><style type="text/css"></style></defs><path d="M256 0h512v1024l-256-96-256 96z" fill="#403932" p-id="2032"></path><path d="M434.2 332c27.6 12.3 57.4 26 89.4 41.1l70.6-61.1h-175v-23.1l15.2-38.8h-74.5v-23.8h83.9l16.9-42.8H379v-23.8h91l16.4-41.6h28.4l-16.4 41.6h148v23.8H489l-16.9 42.8h194.2v23.8H462.8l-15.2 38.4h182.2v24.4L546.7 384c14 6.7 28.3 13.6 43.1 20.8l-15.3 23.8c-52.3-27.5-103.4-52.7-153.4-75.6l13.1-21z m-76.6 391.8h144.7v-16.6l76.6-20.9H385.1v-20.6H622v26.9l-94.7 27.8v3.4h138.4V745H527.3v25.6c0 24.2-13 36.2-39.1 36.2-12.1 0-27.5-0.2-46.2-0.6-0.6-6.9-1.9-15.3-3.8-25.3 16.9 1.9 32.1 2.8 45.6 2.8 12.3 0.2 18.4-5.4 18.4-16.9V745H357.6v-21.2z m45.6-144.4h215v74.1h-23.8v-10H427v10h-23.8v-74.1z m-41.8-40.6h139.2c-6.3-9.5-12.6-18.5-18.9-27.2l22.8-13.4c9.8 12.9 17.9 24.2 24.4 33.8l-11.9 6.9h145.9V560H361.4v-21.2z m233.1 60.6H427v24.1h167.5v-24.1z" fill="#DDA206" p-id="2033"></path></svg>