<?xml version="1.0" standalone="no"?><!DOCTYPE svg PUBLIC "-//W3C//DTD SVG 1.1//EN" "http://www.w3.org/Graphics/SVG/1.1/DTD/svg11.dtd"><svg t="1547706049643" class="icon" style="" viewBox="0 0 1024 1024" version="1.1" xmlns="http://www.w3.org/2000/svg" p-id="1557" xmlns:xlink="http://www.w3.org/1999/xlink" width="32" height="32"><defs><style type="text/css"></style></defs><path d="M863.832625 756.703211c0 55.845912-45.27209 101.116979-101.118002 101.116979L258.672876 857.82019c-55.845912 0-101.119025-45.271066-101.119025-101.116979L157.55385 259.791861c0-55.845912 45.273113-101.118002 101.119025-101.118002l301.6809 0L560.353776 65.782216 191.702602 65.782216c-70.685899 0-127.988999 57.3031-127.988999 127.988999l0 628.952642c0 70.685899 57.3031 127.988999 127.988999 127.988999l637.980249 0c70.688969 0 127.988999-57.3031 127.988999-127.988999L957.67185 557.912679l-93.839225 0L863.832625 756.703211z" p-id="1558"></path><path d="M796.938794 148.909174l42.241909-40.751087 119.118617 123.476406-42.241909 40.751087-119.118617-123.476406Z" p-id="1559"></path><path d="M344.86084 585.022107 331.552743 719.158107 463.983915 708.494233Z" p-id="1560"></path><path d="M331.549673 719.163223 331.552743 719.158107 331.544557 719.158107Z" p-id="1561"></path><path d="M506.659015 667.327439l-119.120748-123.478615 376.931541-363.628691 119.120748 123.478615-376.931541 363.628691Z" p-id="1562"></path></svg>