<?xml version="1.0" standalone="no"?><!DOCTYPE svg PUBLIC "-//W3C//DTD SVG 1.1//EN" "http://www.w3.org/Graphics/SVG/1.1/DTD/svg11.dtd"><svg t="1548060127607" class="icon" style="" viewBox="0 0 1122 1024" version="1.1" xmlns="http://www.w3.org/2000/svg" p-id="4220" xmlns:xlink="http://www.w3.org/1999/xlink" width="20" height="20"><defs><style type="text/css"></style></defs><path d="M561.702924 985.674854c-73.805848 0-173.511111-50.301754-260.34152-130.994152-95.214035-88.477193-149.707602-192.224561-149.707603-283.995322V194.021053c0-13.773099 11.22807-25.450292 25.450293-25.450293l38.025731-0.449123c3.443275 0 82.788304-2.245614 164.378947-34.881871 50.750877-19.461988 99.106433-44.31345 144.018713-73.955555L546.432749 43.115789c4.34152-3.293567 9.730994-4.940351 15.270175-4.94035 5.688889 0 10.778947 1.796491 15.270175 4.94035l22.755556 16.018714c2.245614 1.796491 57.787135 40.421053 143.419883 73.955555 52.247953 20.360234 107.939181 32.187135 164.378947 34.881872l38.025731 0.449123c14.222222 0 25.6 11.677193 25.6 25.450292v376.814035c0 92.369591-54.493567 195.518129-149.707602 283.995322-85.632749 81.291228-185.487719 130.994152-259.74269 130.994152zM204.350877 571.284211c0 77.847953 48.804678 167.97193 133.239766 247.017543 74.853801 69.614035 164.977778 116.472515 224.112281 116.472515 58.984795 0 149.108772-46.85848 224.112281-116.472515 85.033918-79.045614 133.239766-169.019883 133.239766-247.017543v-351.812866h-12.425731c-62.877193-2.994152-124.85614-16.018713-183.242105-38.624561-54.493567-21.108772-106.14269-47.906433-154.198831-79.94386l-7.335672-5.539181-7.335673 5.539181c-2.395322 1.646784-62.42807 43.71462-154.348538 80.093567-90.722807 35.929825-179.79883 38.175439-183.242105 38.774269h-12.425731v351.513451h-0.149708z m311.391813 107.490058c-7.934503 0.149708-15.419883-3.14386-20.959064-8.683041L380.25731 551.522807c-5.539181-5.838596-8.683041-13.623392-8.533333-21.557895 0-8.233918 2.694737-15.719298 8.533333-21.557894 5.539181-5.688889 13.024561-8.982456 20.959064-8.832749 7.934503 0 15.270175 2.994152 20.959065 8.832749l93.567251 96.261988 208.093567-214.231579c5.539181-5.688889 13.024561-8.832749 20.959065-8.683041 8.084211 0 15.419883 2.844444 20.959064 8.683041 11.377778 12.126316 11.377778 30.989474 0 43.265497l-229.052632 235.789474c-5.389474 5.688889-12.874854 9.132164-20.959064 9.281871z m0 0" fill="#F29250" p-id="4221"></path></svg>