<?xml version="1.0" standalone="no"?><!DOCTYPE svg PUBLIC "-//W3C//DTD SVG 1.1//EN" "http://www.w3.org/Graphics/SVG/1.1/DTD/svg11.dtd"><svg t="1548071499134" class="icon" style="" viewBox="0 0 1024 1024" version="1.1" xmlns="http://www.w3.org/2000/svg" p-id="5047" xmlns:xlink="http://www.w3.org/1999/xlink" width="20" height="20"><defs><style type="text/css"></style></defs><path d="M717.024002 339.42248 599.080799 221.996047 245.244029 574.274322 363.188254 691.695638Z" p-id="5048"></path><path d="M834.974367 221.996047c16.278755-16.20917 16.278755-42.49586 0-58.71117L775.997138 104.575754c-16.284895-16.210193-42.688241-16.210193-58.973136 0l-88.454588 88.068801 117.944226 117.42234L834.974367 221.996047z" p-id="5049"></path><path d="M215.521077 603.604324 176.263981 760.137427 333.489862 721.04406Z" p-id="5050"></path><path d="M916.424424 845.943698 106.468358 845.943698c-23.13593 0-41.894156 18.715247-41.894156 41.791825 0 23.083741 18.758226 41.800012 41.894156 41.800012l809.955042 0c23.134907 0 41.893132-18.71627 41.893132-41.800012C958.317557 864.658945 939.559331 845.943698 916.424424 845.943698z" p-id="5051"></path></svg>