<?xml version="1.0" standalone="no"?><!DOCTYPE svg PUBLIC "-//W3C//DTD SVG 1.1//EN" "http://www.w3.org/Graphics/SVG/1.1/DTD/svg11.dtd"><svg t="1548001829823" class="icon" style="" viewBox="0 0 1024 1024" version="1.1" xmlns="http://www.w3.org/2000/svg" p-id="7539" xmlns:xlink="http://www.w3.org/1999/xlink" width="36" height="36"><defs><style type="text/css"></style></defs><path d="M249.315556 704.967111c-4.394667 0-8.775111-4.394667-13.169778-6.584889-10.979556-10.979556-10.979556-32.938667 0-43.918222 4.394667-4.394667 8.789333-8.789333 13.169778-8.789333h114.190222L633.614222 287.715556c2.190222-4.394667 6.584889-6.584889 8.789334-10.979556 39.523556-39.523556 114.190222-50.503111 153.728-10.979556 39.523556 39.523556 28.544 114.190222-10.979556 153.728-2.204444 4.394667-6.584889 6.584889-8.789333 8.789334L425.002667 700.572444v116.380445c-2.204444 10.979556-2.204444 10.979556-6.584889 15.374222-13.169778 10.979556-59.832889 10.979556-73.016889 0-4.394667-4.394667-6.584889-6.584889-8.789333-17.564444 0 0-2.190222-28.544-2.190223-72.462223 4.394667-37.333333-35.128889-32.938667-35.128889-32.938666l-49.976888-4.394667z" fill="#FFC824" p-id="7540"></path><path d="M687.203556 268.330667c5.219556 5.205333 13.155556 6.243556 19.712 2.887111 12.842667-6.556444 29.980444-4.067556 39.580444 7.452444 9.557333 11.477333 11.662222 27.434667 6.272 39.694222-2.816 6.414222-1.649778 13.880889 3.299556 18.830223l1.152 1.152c7.964444 7.964444 21.546667 6.016 26.595555-4.067556 12.999111-25.941333 8.718222-58.524444-12.856889-80.099555-19.740444-21.703111-52.195556-25.912889-79.431111-12.615112-10.225778 5.006222-12.387556 18.702222-4.323555 26.766223z" fill="#260B09" p-id="7541"></path><path d="M631.025778 175.431111c-5.162667 5.162667-8.888889 9.571556-12.487111 13.838222-3.057778 3.626667-5.959111 7.054222-9.386667 10.496L554.339556 274.488889l-150.257778-31.445333c-10.794667 0.568889-19.214222 9.400889-19.214222 20.238222 0 6.798222 3.370667 13.070222 9.031111 16.853333l132.394666 28.515556-107.050666 140.188444L169.528889 302.976l-0.256-0.256c-15.800889-15.800889-15.800889-39.623111 0-55.424 7.822222-7.822222 20.679111-10.865778 34.389333-8.120889l79.516445 17.123556c9.799111-1.536 17.137778-10.069333 17.137777-20.039111 0-6.784-3.342222-13.027556-8.96-16.824889l-54.556444-11.420445c-19.328-4.835556-28.984889-7.239111-50.503111-4.849778l-0.312889 0.014223c-5.944889 0-32.184889 6.442667-48.853333 26.908444-12.942222 15.900444-16.981333 36.167111-12.003556 60.231111l0.056889 0.583111c0 9.059556 13.539556 24.590222 18.744889 29.809778l0.170667 0.184889c0.113778 0.142222 12.273778 14.577778 33.664 28.828444 53.276444 34.247111 127.601778 76.074667 181.873777 106.624 15.744 8.860444 29.340444 16.512 40.704 23.011556l2.801778 1.592889-76.216889 101.632h-70.314666l-9.784889-2.446222c-39.239111 0.028444-52.906667 5.12-76.145778 21.376-13.112889 13.212444-19.854222 29.937778-19.484445 48.412444 0.426667 21.12 10.24 42.055111 26.922667 57.472 11.804444 11.790222 23.608889 18.929778 35.157333 21.290667 16.014222 0.995556 29.937778 1.592889 42.24 2.104889 17.664 0.739556 31.644444 1.336889 43.235556 2.773333h4.679111l0.398222 2.375111c1.379556 8.305778 1.991111 18.702222 2.688 30.734222 0.540444 9.287111 1.152 19.825778 2.232889 30.648889l0.028445 0.298667-0.028445 0.298667c-2.133333 19.185778 5.660444 40.704 21.361778 59.022222 9.557333 11.946667 26.197333 18.816 37.560889 21.091555 24.618667 4.920889 50.190222-3.029333 68.408889-21.262222 21.205333-21.191111 21.205333-46.606222 21.205333-78.762667l2.488889-74.851555 96.64-76.302222 1.635556 2.872889c6.328889 11.064889 13.724444 24.220444 22.300444 39.438222 30.506667 54.186667 72.291556 128.398222 104.888889 178.261333l0.256 0.497778c4.366222 10.908444 10.965333 20.423111 21.404444 30.876444 10.296889 10.296889 22.129778 16.611556 35.171556 18.787556l0.355555 0.085333c24.760889 7.438222 52.437333-0.881778 70.499556-21.191111l0.113778-0.128c20.536889-20.551111 25.699556-50.033778 23.68-70.883555L743.253333 478.378667l84.664889-69.717334c8.376889-7.324444 11.790222-10.140444 13.824-11.832889 2.517333-2.076444 2.517333-2.076444 7.978667-7.537777 55.011556-59.648 75.349333-163.029333 12.273778-226.104889-62.592-62.592-173.568-45.155556-230.968889 12.245333z m162.332444 641.194667c2.858667 14.321778-0.796444 27.064889-10.567111 36.835555-6.357333 6.357333-16.014222 10.012444-26.496 10.012445-10.467556 0-20.124444-3.655111-26.481778-10.012445-4.992-4.992-10.154667-10.154667-10.595555-15.900444L586.168889 601.031111 704 508.828444l89.358222 307.797334z m63.687111-532.792889c-3.185778 33.194667-17.649778 64.910222-39.665777 87.096889-2.005333 3.754667-5.105778 6.129778-7.623112 8.049778-0.967111 0.739556-1.877333 1.436444-2.488888 2.048l-0.270223 0.241777-390.542222 302.677334v128.611555l-0.056889 0.270222c-2.474667 12.344889-2.616889 13.084444-8.120889 18.588445l-0.184889 0.170667c-7.850667 6.542222-16.469333 9.813333-25.073777 9.813333-8.618667 0-17.223111-3.271111-25.073778-9.813333l-0.184889-0.170667c-5.134222-5.134222-7.950222-7.950222-10.567111-21.034667l-0.042667-0.341333c-0.028444-0.312889-2.460444-32.497778-2.460444-80.995556l0.014222-0.327111c1.294222-10.965333-0.910222-19.399111-6.528-25.059555-10.424889-10.481778-29.297778-8.519111-29.496889-8.504889l-0.227555 0.028444-0.241778-0.014222-90.496-4.892444c-4.096-0.028444-7.751111-2.474667-11.292445-4.835556-1.607111-1.066667-3.114667-2.076444-4.593777-2.816l-0.412445-0.213333-0.327111-0.327111c-6.357333-6.357333-10.012444-16.014222-10.012444-26.496 0-10.467556 3.655111-20.124444 10.012444-26.496 5.233778-5.233778 10.624-10.624 16.696889-10.624h125.866667l300.074666-397.667556c1.422222-2.730667 3.399111-4.707556 5.304889-6.613333 1.720889-1.720889 3.342222-3.342222 4.366222-5.390223l0.199111-0.412444 0.327112-0.327111c22.200889-22.200889 54.072889-36.778667 87.409777-39.978667 35.413333-3.413333 66.659556 6.442667 87.950223 27.747556 21.304889 21.347556 31.160889 52.593778 27.761777 88.007111z" fill="#260B09" p-id="7542"></path><path d="M589.838222 601.784889l132.181334 234.993778c0 4.892444 4.892444 9.799111 9.799111 14.691555 12.231111 12.245333 36.721778 12.245333 48.952889 0 9.799111-9.799111 12.231111-22.030222 9.799111-34.275555l-88.120889-303.530667-112.611556 88.120889z m188.928 247.665778c-5.304889 5.304889-13.496889 8.348444-22.471111 8.348444-8.974222 0-17.166222-3.043556-22.471111-8.348444-4.408889-4.408889-8.96-8.96-8.96-12.672v-0.739556l-131.356444-233.514667 107.363555-84.024888 86.912 299.377777c1.720889 8.604444 1.507556 21.034667-9.016889 31.573334z" fill="#FFFFFF" p-id="7543"></path><path d="M586.168889 601.045333l133.048889 236.529778c0.440889 5.745778 5.603556 10.908444 10.595555 15.900445 6.357333 6.357333 16.014222 10.012444 26.481778 10.012444 10.467556 0 20.124444-3.655111 26.496-10.012444 9.770667-9.770667 13.425778-22.513778 10.567111-36.835556L704 508.828444l-117.831111 92.216889z m194.602667 250.410667c-12.231111 12.245333-36.721778 12.245333-48.952889 0-4.892444-4.892444-9.799111-9.799111-9.799111-14.691556l-132.181334-234.993777 112.597334-88.120889 88.120888 303.530666c2.460444 12.245333 0.014222 24.476444-9.784888 34.275556z" fill="#FFFFFF" p-id="7544"></path><path d="M363.420444 251.576889c0 11.264-9.130667 20.394667-20.394666 20.394667s-20.394667-9.130667-20.394667-20.394667 9.130667-20.394667 20.394667-20.394667 20.394667 9.130667 20.394666 20.394667z" fill="#260B09" p-id="7545"></path></svg>