<?xml version="1.0" standalone="no"?><!DOCTYPE svg PUBLIC "-//W3C//DTD SVG 1.1//EN" "http://www.w3.org/Graphics/SVG/1.1/DTD/svg11.dtd"><svg t="1548207475947" class="icon" style="" viewBox="0 0 1024 1024" version="1.1" xmlns="http://www.w3.org/2000/svg" p-id="3655" xmlns:xlink="http://www.w3.org/1999/xlink" width="32" height="32"><defs><style type="text/css"></style></defs><path d="M497.52064 334.5408c25.00608 0 41.71776-16.73216 41.71776-41.6768 0-25.21088-16.67072-41.53344-41.71776-41.53344s-50.15552 16.32256-50.15552 41.53344c0.02048 24.94464 25.14944 41.6768 50.15552 41.6768zM264.23296 251.33056c-25.00608 0-50.2784 16.32256-50.2784 41.53344 0 24.94464 25.27232 41.6768 50.2784 41.6768 24.92416 0 41.59488-16.73216 41.59488-41.6768-0.02048-25.21088-16.67072-41.53344-41.59488-41.53344z" fill="#1D9634" p-id="3656"></path><path d="M996.12672 601.35424c0-131.85024-122.32704-244.18304-272.46592-255.87712a14.37696 14.37696 0 0 0-0.06144-5.03808c-30.1056-140.36992-181.00224-246.1696-351.10912-246.1696-192.16384 0-348.54912 134.00064-348.54912 298.72128 0 88.3712 45.11744 168.01792 130.60096 230.8096L124.7232 713.35936a15.29856 15.29856 0 0 0 4.48512 16.32256 15.42144 15.42144 0 0 0 16.77312 2.08896l111.88224-55.99232 13.78304 2.80576c34.44736 7.08608 64.18432 13.2096 100.82304 13.2096 10.79296 0 21.72928-0.47104 32.4608-1.35168a15.09376 15.09376 0 0 0 10.50624-5.71392c40.3456 100.92544 151.53152 173.83424 282.37824 173.83424 33.52576 0 67.46112-8.11008 97.8944-15.72864l86.26176 47.16544a15.07328 15.07328 0 0 0 16.7936-1.47456 15.21664 15.21664 0 0 0 4.99712-16.19968l-8.23296-81.05984c73.87136-58.40896 100.59776-120.38144 100.59776-189.91104zM402.37056 639.5904a337.1008 337.1008 0 0 1-29.83936 1.29024c-33.52576 0-61.91104-5.79584-94.72-12.55424l-19.08736-3.87072a14.76608 14.76608 0 0 0-9.74848 1.31072l-67.44064 46.83776 25.86624-49.84832a15.17568 15.17568 0 0 0-5.69344-17.24416c-84.21376-58.71616-126.89408-130.23232-126.89408-212.52096 0-147.94752 122.24512-247.86944 297.6768-247.86944 155.09504 0 271.91296 73.87136 300.27776 199.3728-162.63168 2.12992-273.73568 116.46976-273.73568 256.86016 0.02048 20.43904-0.3072 16.896 3.33824 38.23616-1.57696-0.38912 0 0 0 0z m452.7104 121.15968a15.23712 15.23712 0 0 0-5.40672 16.4864l5.75488 53.30944-50.36032-37.7856a14.97088 14.97088 0 0 0-10.97728-1.41312c-31.6416 8.00768-64.34816 16.24064-96.21504 16.24064-148.02944 0-247.93088-81.24416-247.93088-206.27456 0-124.98944 99.92192-206.19264 247.93088-206.19264 145.18272 0 247.37792 83.31264 247.37792 206.19264 0 62.3616-18.82112 105.75872-90.17344 159.4368z" fill="#1D9634" p-id="3657"></path><path d="M605.92128 493.01504c-16.67072 0-33.36192 16.7936-33.36192 33.44384 0 16.77312 16.67072 33.34144 33.36192 33.34144 25.06752 0 41.61536-16.56832 41.61536-33.34144 0-16.6912-16.54784-33.44384-41.61536-33.44384zM789.15584 493.01504c-16.42496 0-33.11616 16.7936-33.11616 33.44384 0 16.77312 16.6912 33.34144 33.11616 33.34144 24.96512 0 41.84064-16.56832 41.84064-33.34144 0-16.6912-16.83456-33.44384-41.84064-33.44384z" fill="#1D9634" p-id="3658"></path></svg>