<?xml version="1.0" standalone="no"?><!DOCTYPE svg PUBLIC "-//W3C//DTD SVG 1.1//EN" "http://www.w3.org/Graphics/SVG/1.1/DTD/svg11.dtd"><svg t="1548001344457" class="icon" style="" viewBox="0 0 1024 1024" version="1.1" xmlns="http://www.w3.org/2000/svg" p-id="5806" xmlns:xlink="http://www.w3.org/1999/xlink" width="36" height="36"><defs><style type="text/css"></style></defs><path d="M512 1024C229.229714 1024 0 794.770286 0 512S229.229714 0 512 0s512 229.229714 512 512-229.229714 512-512 512z m107.910095-626.371048h20.089905c-20.08990501-94.744381-115.565714-162.962286-225.304381-162.962285-124.001524 0-222.69561899 86.04038101-222.695619 198.607238 0 65.097143 34.57219 115.492571 89.42933301 156.94019001l-23.11314301 71.11923799 77.994667-41.447619c25.502476 6.826667 51.638857 10.77638101 77.970286 11.80038101h20.114286a133.60761899 133.60761899 0 0 1-5.851429-47.469714 193.121524 193.121524 0 0 1 57.46590501-134.41219101 181.36990499 181.36990499 0 0 1 133.09561899-52.175238h0.804571zM504.636952 341.33333299c15.847619 0 28.696381 14.287238 28.69638099 31.91466701s-12.848762 31.914667-28.69638099 31.914667c-17.65181 1.950476-33.401905-12.31238101-35.303619-31.939048 0-22.28419 17.456762-31.890286 34.718477-31.89028601h0.585142z m-171.03238099 63.87809601c-17.554286 1.46285701-33.01181-12.653714-34.93790402-31.890286 1.926095-19.21219 17.383619-33.328762 34.937904-31.89028601 16.042667 0 29.06209499 14.287238 29.06209601 31.91466701 0 17.603048-13.019429 31.890286-29.06209601 31.890286z m498.39542899 169.59390401c0-92.23314301-90.136381-169.472-192-169.47200001-107.76381 0-192 77.238857-192 169.447619 0 92.257524 84.45561899 169.496381 192 169.496381 22.674286-1.072762 45.129143-5.046857 66.82819-11.873523l60.757334 35.59619-17.408-59.538286c49.42019-35.59619 81.017905-83.285333 81.017905-133.851428l0.804571 0.19504701z m-258.43809499-20.28495201c-10.435048 0-18.895238-9.48419-18.89523801-21.18704801s8.46019-21.211429 18.89523799-21.211428c11.727238-1.389714 22.308571 7.996952 23.77142801 21.11390501-1.389714 13.214476-11.971048 22.698667-23.77142801 21.284571z m127.99999999 0.097524c-10.435048 0-18.895238-9.508571-18.89523801-21.211429 0-11.751619 8.46019-21.26019 18.89523801-21.26019 11.727238-1.41409501 22.308571 7.996952 23.77142799 21.13828499-2.194286 12.921905-12.580571 22.040381-24.25904699 21.33333401h0.487619z" fill="#0ABC64" p-id="5807"></path></svg>