<?xml version="1.0" standalone="no"?><!DOCTYPE svg PUBLIC "-//W3C//DTD SVG 1.1//EN" "http://www.w3.org/Graphics/SVG/1.1/DTD/svg11.dtd"><svg t="1548207870237" class="icon" style="" viewBox="0 0 1024 1024" version="1.1" xmlns="http://www.w3.org/2000/svg" p-id="5183" xmlns:xlink="http://www.w3.org/1999/xlink" width="32" height="32"><defs><style type="text/css"></style></defs><path d="M825.083528 1024H195.991279C101.548351 1024 23.272378 954.889178 23.272378 861.167366V140.051418C23.272378 73.499394 23.621305-6.98645 179.289303 0.480589h465.957212C832.410996-4.962673 790.911937 163.313222 790.911937 163.313222s209.798217-31.915196 209.356243 162.832634v535.02151c0 95.3734-79.066875 162.832634-175.184652 162.832634zM674.602913 70.266003L134.905779 68.707462C68.097876 67.753728 82.636504 151.17056 139.581402 140.051418h535.021511c56.572709 2.907726 62.550993-71.599835 0-69.785415z m255.879852 279.141658c-1.605065-70.76241-15.399315-141.803962-139.570828-139.570829H139.581402c-22.121976-0.093047-46.52361 24.564466-46.523609 46.52361v604.806924c0 45.686185 70.273912 93.047219 116.309024 93.04722h604.806924c51.478374 1.977253 116.12293-63.92344 116.309024-116.309024V349.407661z m-209.356243 441.974291a69.785414 69.785414 0 1 1 0-139.570829 69.785414 69.785414 0 0 1 0 139.570829z m-127.939926-325.665267h-395.450682a34.892707 34.892707 0 0 1 0-69.785415h395.450682a34.892707 34.892707 0 0 1 0 69.785415z m-395.450682 139.570829h209.356243a34.892707 34.892707 0 0 1 0 69.785414h-209.356243a34.892707 34.892707 0 0 1 0-69.785414z" p-id="5184"></path></svg>