<?xml version="1.0" standalone="no"?><!DOCTYPE svg PUBLIC "-//W3C//DTD SVG 1.1//EN" "http://www.w3.org/Graphics/SVG/1.1/DTD/svg11.dtd"><svg t="1548038914348" class="icon" style="" viewBox="0 0 1024 1024" version="1.1" xmlns="http://www.w3.org/2000/svg" p-id="2448" xmlns:xlink="http://www.w3.org/1999/xlink" width="20" height="20"><defs><style type="text/css"></style></defs><path d="M707.584 93.184c-77.312 0-148.992 38.912-196.608 102.912-47.104-64-119.296-102.912-196.608-102.912-139.264 0-252.416 123.904-252.416 275.968 0 90.624 40.448 154.624 73.216 205.824C229.888 723.944727 468.48 908.8 478.72 916.48c9.728 7.68 20.992 11.240727 32.256 11.240727s22.528-3.560727 32.256-11.240727c10.24-7.68 248.32-193.024 343.552-341.504 32.768-51.2 73.216-115.2 73.216-205.824 0-152.064-113.128727-275.968-252.416-275.968z m114.199273 480.279273c-87.575273 122.856727-272.919273 263.168-282.135273 269.824a47.941818 47.941818 0 0 1-28.648727 10.216727c-10.24 0-19.968-3.072-28.672-10.216727-9.216-6.656-190.976-148.503273-282.112-274.944-29.184-46.08-75.776-103.424-75.776-184.32 0-136.192 75.776-231.936 200.192-231.936 69.12 0 144.384 66.048 186.368 123.392 42.496-57.344 117.248-123.392 186.368-123.392 124.928 0 205.847273 95.744 205.847272 231.936-0.023273 80.872727-51.758545 143.848727-81.431272 189.44z" fill="#333333" p-id="2449"></path></svg>