<?xml version="1.0" standalone="no"?><!DOCTYPE svg PUBLIC "-//W3C//DTD SVG 1.1//EN" "http://www.w3.org/Graphics/SVG/1.1/DTD/svg11.dtd"><svg t="1547644622379" class="icon" style="" viewBox="0 0 1024 1024" version="1.1" xmlns="http://www.w3.org/2000/svg" p-id="1529" xmlns:xlink="http://www.w3.org/1999/xlink" width="64" height="64"><defs><style type="text/css"></style></defs><path d="M998.4 227.555556c-11.377778-39.822222-31.288889-76.8-56.888889-110.933334-48.355556-39.822222-108.088889-48.355556-173.511111-48.355555-85.333333 0-147.911111 14.222222-184.888889 36.977777-14.222222 11.377778-59.733333 45.511111-71.111111 56.888889-14.222222-11.377778-244.622222-71.111111-284.444444-54.044444-85.333333 36.977778-128 88.177778-150.755556 125.155555-25.6 42.666667-36.977778 91.022222-28.444444 128l8.533333 25.6c5.688889 2.844444 14.222222 5.688889 22.755555 5.688889 11.377778 0 22.755556-2.844444 36.977778-11.377777 19.911111-11.377778 79.644444-51.2 102.4-65.422223l-8.533333 48.355556c-14.222222 34.133333-11.377778 182.044444 2.844444 207.644444 8.533333 2.844444 17.066667 5.688889 25.6 5.688889 14.222222 0 31.288889-8.533333 48.355556-25.6 65.422222-76.8 142.222222-156.444444 179.2-190.577778 19.911111-17.066667 275.911111 341.333333-56.888889 637.155556h290.133333c25.6-68.266667 36.977778-182.044444 36.977778-253.155556s-14.222222-139.377778-39.822222-210.488888c-11.377778-34.133333-25.6-65.422222-42.666667-99.555556 11.377778 11.377778 19.911111 22.755556 31.288889 34.133333 0-2.844444-2.844444-5.688889-2.844444-5.688889 25.6 28.444444 51.2 56.888889 76.8 88.177778 34.133333 25.6 62.577778 11.377778 73.955555 2.844445 25.6-17.066667 42.666667-59.733333 42.666667-108.088889 0-22.755556 0-45.511111-5.688889-68.266667 11.377778 5.688889 25.6 8.533333 39.822222 8.533333 14.222222 0 31.288889-2.844444 45.511111-11.377777 22.755556-11.377778 36.977778-31.288889 42.666667-59.733334 8.533333-28.444444 8.533333-56.888889 0-88.177777z" fill="#5FB49C" p-id="1530"></path><path d="M969.955556 199.111111c-8.533333-34.133333-25.6-65.422222-45.511112-93.866667C881.777778 73.955556 827.733333 59.733333 768 56.888889c-150.755556-8.533333-244.622222 79.644444-256 91.022222-14.222222-8.533333-91.022222-105.244444-284.444444-39.822222-88.177778 31.288889-128 88.177778-150.755556 125.155555-25.6 42.666667-36.977778 91.022222-28.444444 128h2.844444c28.444444 28.444444 142.222222-88.177778 170.666667-76.8-17.066667 31.288889-48.355556 201.955556-17.066667 261.688889 56.888889 36.977778 187.733333-182.044444 238.933333-199.111111 76.8 39.822222 91.022222 315.733333 71.111111 429.511111-11.377778 68.266667-51.2 139.377778-82.488888 187.733334h273.066666c25.6-68.266667 34.133333-187.733333 31.288889-261.688889 0-71.111111-62.577778-238.933333-79.644444-273.066667 65.422222 73.955556 102.4 102.4 150.755555 93.866667 62.577778-22.755556 65.422222-136.533333 59.733334-159.288889 11.377778 5.688889 93.866667-25.6 105.244444-82.488889 5.688889-22.755556 5.688889-51.2-2.844444-82.488889z" fill="#98DFAF" p-id="1531"></path><path d="M699.733333 1009.777778h-341.333333c-5.688889 0-11.377778-2.844444-14.222222-8.533334-2.844444-5.688889 0-11.377778 2.844444-14.222222 14.222222-17.066667 105.244444-130.844444 122.311111-238.933333 8.533333-45.511111 8.533333-99.555556 5.688889-156.444445v-5.688888c-5.688889-68.266667-19.911111-130.844444-42.666666-176.355556-39.822222 39.822222-85.333333 91.022222-136.533334 150.755556-22.755556 25.6-45.511111 31.288889-59.733333 31.288888s-28.444444-5.688889-39.822222-14.222222c-31.288889-22.755556-48.355556-71.111111-51.2-130.844444 0-25.6 2.844444-51.2 8.533333-76.8-11.377778 8.533333-22.755556 14.222222-34.133333 22.755555-14.222222 8.533333-28.444444 14.222222-42.666667 14.222223-36.977778 0-62.577778-25.6-73.955556-68.266667-8.533333-42.666667 2.844444-93.866667 28.444445-139.377778 22.755556-36.977778 68.266667-91.022222 156.444444-130.844444 42.666667-17.066667 85.333333-25.6 130.844445-25.6 65.422222 0 122.311111 17.066667 147.911111 28.444444 14.222222 5.688889 28.444444 11.377778 39.822222 19.911111 11.377778-8.533333 19.911111-14.222222 31.288889-22.755555 39.822222-22.755556 105.244444-54.044444 193.422222-54.044445 71.111111 0 133.688889 22.755556 184.888889 68.266667 42.666667 36.977778 73.955556 88.177778 88.177778 142.222222 8.533333 31.288889 8.533333 65.422222 2.844444 91.022222-8.533333 31.288889-25.6 56.888889-51.2 71.111111-17.066667 11.377778-39.822222 17.066667-65.422222 11.377778 2.844444 17.066667 2.844444 31.288889 2.844445 48.355556-2.844444 54.044444-19.911111 99.555556-48.355556 119.466666-14.222222 11.377778-62.577778 36.977778-119.466667-31.288888-5.688889-5.688889-11.377778-14.222222-17.066666-19.911112 2.844444 5.688889 2.844444 8.533333 5.688889 14.222223 25.6 71.111111 36.977778 142.222222 39.822222 213.333333 0 73.955556-11.377778 187.733333-36.977778 258.844444-5.688889 5.688889-8.533333 8.533333-17.066667 8.533334z m-310.044444-28.444445h301.511111c22.755556-68.266667 34.133333-170.666667 31.288889-238.933333 0-68.266667-14.222222-136.533333-36.977778-204.8-11.377778-34.133333-25.6-65.422222-42.666667-96.711111-2.844444-5.688889 0-14.222222 5.688889-17.066667 5.688889-2.844444 14.222222-2.844444 19.911111 2.844445 28.444444 28.444444 54.044444 59.733333 79.644445 91.022222 39.822222 48.355556 68.266667 36.977778 82.488889 28.444444 22.755556-14.222222 36.977778-54.044444 36.977778-96.711111 0-22.755556 0-42.666667-5.688889-65.422222 0-5.688889 0-11.377778 5.688889-14.222222 5.688889-2.844444 11.377778-2.844444 14.222222-2.844445 25.6 11.377778 48.355556 11.377778 73.955555-2.844444 17.066667-8.533333 31.288889-28.444444 36.977778-51.2 5.688889-22.755556 5.688889-48.355556-2.844444-76.8-11.377778-51.2-39.822222-93.866667-76.8-128-45.511111-39.822222-102.4-62.577778-167.822223-62.577778-82.488889 0-142.222222 25.6-179.2 48.355556-14.222222 8.533333-25.6 17.066667-36.977777 25.6-5.688889 2.844444-11.377778 5.688889-17.066667 0-14.222222-8.533333-28.444444-17.066667-45.511111-22.755556-25.6-11.377778-79.644444-28.444444-139.377778-28.444444-39.822222 0-79.644444 8.533333-116.622222 25.6-82.488889 34.133333-122.311111 85.333333-145.066667 119.466666-28.444444 36.977778-36.977778 82.488889-31.288889 116.622223 8.533333 42.666667 39.822222 56.888889 73.955556 36.977777 17.066667-11.377778 36.977778-25.6 56.888889-39.822222l8.533333-5.688889c5.688889-2.844444 11.377778-2.844444 17.066667 0 5.688889 2.844444 5.688889 11.377778 5.688889 17.066667-14.222222 34.133333-19.911111 71.111111-19.911111 105.244444 0 48.355556 14.222222 91.022222 39.822222 108.088889 5.688889 2.844444 14.222222 8.533333 22.755555 8.533334 14.222222 0 25.6-8.533333 36.977778-19.911112 56.888889-65.422222 108.088889-122.311111 150.755556-164.977777 2.844444-2.844444 8.533333-5.688889 11.377777-2.844445 5.688889 0 8.533333 2.844444 11.377778 5.688889 28.444444 51.2 48.355556 122.311111 54.044445 207.644445v2.844444c5.688889 56.888889 2.844444 116.622222-5.688889 164.977778-14.222222 88.177778-73.955556 182.044444-108.088889 227.555555z" fill="#2CA58D" p-id="1532"></path><path d="M537.6 756.622222c8.533333-45.511111 11.377778-99.555556 8.533333-150.755555h147.911111c11.377778 48.355556 17.066667 99.555556 17.066667 150.755555h-173.511111z m119.466667 238.933334h-227.555556c25.6-34.133333 79.644444-128 99.555556-199.111112h179.2c-5.688889 56.888889-31.288889 147.911111-51.2 199.111112z m-179.2-637.155556c31.288889-28.444444 48.355556-39.822222 54.044444-45.511111l2.844445 2.844444c31.288889 28.444444 96.711111 113.777778 136.533333 227.555556 2.844444 8.533333 5.688889 14.222222 8.533333 22.755555H540.444444c0-8.533333-2.844444-17.066667-2.844444-25.6-11.377778-73.955556-31.288889-136.533333-59.733333-182.044444z" fill="#FFFFFF" p-id="1533"></path><path d="M967.111111 1024H56.888889c-17.066667 0-28.444444-11.377778-28.444445-28.444444s11.377778-28.444444 28.444445-28.444445h910.222222c17.066667 0 28.444444 11.377778 28.444445 28.444445s-11.377778 28.444444-28.444445 28.444444z" fill="#2CA58D" p-id="1534"></path></svg>