<?xml version="1.0" standalone="no"?><!DOCTYPE svg PUBLIC "-//W3C//DTD SVG 1.1//EN" "http://www.w3.org/Graphics/SVG/1.1/DTD/svg11.dtd"><svg t="1547706388761" class="icon" style="" viewBox="0 0 1024 1024" version="1.1" xmlns="http://www.w3.org/2000/svg" p-id="3148" xmlns:xlink="http://www.w3.org/1999/xlink" width="32" height="32"><defs><style type="text/css"></style></defs><path d="M873.935445 159.222944c-18.112122-18.112122-35.405616-21.079644-50.754871-21.079644H657.715599l-23.433197-0.102329v-2.865194c-1.637254-29.879884-5.525732-49.833916-20.363345-63.955231-14.632957-14.018987-34.382332-16.781853-63.545918-16.781853h-68.560008c-1.739582 0-3.683821-0.102328-5.832717-0.306985-2.148896-0.102328-4.40012-0.306985-6.549016-0.306985h-11.256121c-21.488958 0-38.475467 2.353553-50.959528 13.609673-13.609673 12.177076-19.954032 33.461377-19.954032 66.922754v3.78615H188.02838c-16.884181 0-32.64275 7.469971-44.308184 21.079644-10.949136 12.177076-17.191166 28.754272-17.191166 45.433796v616.937744c0 16.577196 6.037374 32.949735 17.088837 45.84311l0.102329 0.102328c11.870091 13.20036 27.526332 20.465674 44.205856 20.465674H229.266713c-0.511642 3.376836-0.818627 6.651344-0.818627 9.925852 0 36.633557 29.572899 66.513441 65.899471 66.513441 36.633557 0 66.513441-29.777556 66.51344-66.513441 0-3.274508-0.306985-6.651344-0.818627-9.925852h292.556811c-0.511642 3.376836-0.818627 6.651344-0.818627 9.925852 0 36.633557 29.572899 66.513441 65.89947 66.513441 36.633557 0 66.513441-29.777556 66.513441-66.513441 0-3.274508-0.306985-6.651344-0.818627-9.925852h45.536124c16.781853 0 33.052064-7.469971 44.819826-20.465674l0.102329-0.102328c10.846807-12.688718 16.577196-28.651944 16.577196-45.84311v-616.937744c0.102328-17.088838-5.321075-34.280004-16.474868-45.433796z m-579.48556 753.136804c-7.674628 0-14.4283-6.753672-14.4283-14.4283 0-3.683821 1.534926-7.162986 4.195463-9.925852h20.568002c2.558209 2.660538 3.990806 6.242031 3.990807 9.925852 0.102328 8.083941-6.242031 14.4283-14.325972 14.4283z m-6.24203-80.020785v-642.110523h27.833316v642.826821c-3.78615-0.61397-17.805136-1.023284-21.591286-1.023283-2.148896 0-4.195463 0.102328-6.24203 0.306985zM178.61417 204.65674c0-4.809433 1.22794-9.004897 3.376836-11.051464l0.204657-0.204656 0.204657-0.204657c1.841911-2.148896 4.195463-2.967523 5.62806-2.967523h48.094334v646.305986h-48.094334c-1.22794 0-3.683821-1.125612-5.832717-3.17218-2.251224-2.762866-3.479165-6.958329-3.479165-11.767762v-616.937744z m189.512142-14.4283h19.237733v0.61397h52.085141v-0.61397H582.29959v0.61397h52.085141v-0.61397h14.837613v646.305986H368.126312v-646.305986zM582.29959 138.1433H439.346857v-3.78615c0-29.061257 7.981613-29.061257 18.930749-29.061257 1.125612 0 2.558209 0.102328 4.195463 0.204657 1.944239 0.204657 3.990806 0.306985 5.935045 0.306985h82.067353c19.647047 0 26.093734 1.534926 28.037974 2.967522 0.818627 1.125612 3.172179 6.139702 3.786149 28.447287v0.920956z m135.482762 774.216448c-7.674628 0-13.916658-6.446687-13.916658-14.4283 0-3.683821 1.432597-7.265314 3.990806-9.925852h20.261018c2.558209 2.660538 3.990806 6.242031 3.990806 9.925852 0.102328 8.083941-6.242031 14.4283-14.325972 14.4283z m-17.088837-80.225442v-641.905866h29.368242v642.92915c-2.762866-0.511642-26.707705-0.920955-29.368242-1.023284z m80.839412-641.905866h47.582692c1.432597 0 3.479165 0.306985 5.62806 2.967523l0.204657 0.204657 0.204657 0.204656c2.455881 2.455881 3.888478 6.651344 3.888478 11.051464v616.937744c0 4.40012-1.534926 8.697911-4.093135 11.767762-2.148896 2.148896-4.093135 3.172179-5.832717 3.17218h-47.582692v-646.305986z" fill="" p-id="3149"></path></svg>