<?xml version="1.0" standalone="no"?><!DOCTYPE svg PUBLIC "-//W3C//DTD SVG 1.1//EN" "http://www.w3.org/Graphics/SVG/1.1/DTD/svg11.dtd"><svg t="1548002012682" class="icon" style="" viewBox="0 0 1024 1024" version="1.1" xmlns="http://www.w3.org/2000/svg" p-id="8349" xmlns:xlink="http://www.w3.org/1999/xlink" width="36" height="36"><defs><style type="text/css"></style></defs><path d="M343.186286 987.282286a165.156571 21.650286 0 1 0 330.313143 0 165.156571 21.650286 0 1 0-330.313143 0Z" fill="#52993D" p-id="8350"></path><path d="M418.230857 987.282286l39.936-452.169143-136.777143-136.777143-33.353143-38.326857 175.250286 136.777143 11.556572-180.224-93.330286-100.059429 93.330286 81.773714 11.702857-145.261714h45.056l13.312 201.874286L633.417143 276.48l0.877714 14.189714-86.747428 85.138286 13.312 176.859429 158.427428-145.115429V435.931429L562.468571 594.358857l36.717715 393.801143z" fill="#7C3E0E" p-id="8351"></path><path d="M525.750857 617.764571l39.058286 1.609143s5.997714 11.702857-19.017143 11.702857-20.041143-13.312-20.041143-13.312zM445.293714 681.984l43.885715-0.731429s-3.364571 13.312-26.770286 13.312-17.115429-12.580571-17.115429-12.580571zM512.438857 746.203429h48.420572s-3.364571 15.067429-23.405715 15.067428-25.014857-15.067429-25.014857-15.067428zM517.412571 774.582857h53.394286s-3.364571 16.676571-28.379428 16.676572c-18.285714 0-25.014857-16.676571-25.014858-16.676572zM527.506286 838.070857H579.291429s-3.364571 16.676571-25.014858 16.676572-26.770286-16.676571-26.770285-16.676572zM445.732571 846.409143h46.665143s-1.609143 15.067429-23.405714 15.067428-23.259429-15.067429-23.259429-15.067428zM433.152 817.444571l44.178286 0.438858s-8.338286 15.067429-26.770286 15.067428-17.408-15.506286-17.408-15.506286zM535.844571 914.724571h53.394286s0 15.067429-26.770286 15.067429-26.624-15.067429-26.624-15.067429z" fill="#B1773B" p-id="8352"></path><path d="M288.914286 662.820571s80.164571-23.405714 110.153143 40.082286c0 0-65.097143 34.962286-110.153143-40.082286zM708.169143 654.628571s-83.236571-5.266286-98.742857 63.195429c0 0 71.241143 19.894857 98.742857-63.195429zM197.924571 609.718857s64.219429-53.248 117.028572-6.875428c-0.146286 0-45.933714 57.929143-117.028572 6.875428zM278.528 555.885714s49.152-67.437714 111.616-35.547428c0-0.146286-29.988571 67.437714-111.616 35.547428zM672.036571 503.515429s83.382857 2.340571 92.452572 71.972571c0-0.146286-72.557714 13.312-92.452572-71.972571zM738.157714 608.109714s80.603429-21.504 109.129143 42.569143c0.146286 0-65.828571 33.645714-109.129143-42.569143zM143.506286 456.118857s42.569143-71.68 107.812571-45.933714c0 0-23.552 69.924571-107.812571 45.933714zM166.326857 272.530286s79.286857-25.892571 111.323429 36.425143c0.146286 0-63.780571 37.156571-111.323429-36.425143zM93.037714 217.380571s69.924571-45.494857 117.028572 6.582858c-0.146286 0-52.370286 52.370286-117.028572-6.582858zM161.938286 154.624s73.142857-40.082286 116.150857 15.506286c0-0.146286-56.027429 48.128-116.150857-15.506286zM255.122286 351.817143s71.68-42.569143 116.589714 11.410286c0 0-54.272 50.176-116.589714-11.410286zM414.427429 311.442286s72.850286 40.667429 48.713142 106.642285c0 0-70.656-21.796571-48.713142-106.642285zM421.156571 72.850286s72.850286 40.667429 48.713143 106.496c0 0-70.656-21.796571-48.713143-106.496zM650.532571 113.517714s-15.798857 81.92-85.869714 79.725715c0 0-1.462857-73.874286 85.869714-79.725715zM934.326857 355.474286s-15.798857 81.92-85.869714 79.725714c-0.146286 0-1.609143-73.874286 85.869714-79.725714zM765.366857 269.165714s-39.789714 73.289143-106.057143 49.883429c0.146286 0 21.065143-70.802286 106.057143-49.883429zM804.132571 344.356571s-54.272 63.488-114.102857 26.770286c0.146286 0 35.254857-64.950857 114.102857-26.770286zM871.716571 491.081143s-70.948571 43.885714-116.882285-9.362286c0 0.146286 53.540571-50.907429 116.882285 9.362286zM907.117714 283.062857s-64.658286 52.809143-117.028571 6.144c0 0.146286 46.226286-57.636571 117.028571-6.144zM577.097143 208.310857s51.931429 65.243429 4.534857 117.028572c0 0.146286-57.051429-46.811429-4.534857-117.028572zM593.773714 458.605714s51.931429 65.243429 4.534857 117.028572c0 0.146286-57.051429-46.811429-4.534857-117.028572z" fill="#79DA5F" p-id="8353"></path><path d="M427.154286 546.962286s11.556571 83.382857-62.902857 100.790857c0-0.146286-27.062857-70.948571 62.902857-100.790857zM264.630857 502.345143s-45.494857 70.802286-113.371428 35.547428c0.146286 0 25.746286-71.241143 113.371428-35.547428zM359.131429 484.498286s-79.286857 28.379429-111.469715-41.106286c0 0 63.926857-40.813714 111.469715 41.106286zM208.457143 356.352s-62.610286 56.32-118.637714 4.388571c0 0 43.446857-62.025143 118.637714-4.388571zM373.467429 207.579429s-58.953143 60.123429-118.198858 11.556571c0 0 39.643429-64.512 118.198858-11.556571zM382.829714 138.678857s-80.749714 23.990857-108.982857-47.104c0 0.146286 65.974857-37.156571 108.982857 47.104zM462.555429 242.395429s-84.114286-1.609143-89.673143-77.824c0 0 74.166857-15.506286 89.673143 77.824zM525.897143 131.803429s-41.691429-73.142857 21.065143-116.882286c0.146286 0 51.346286 55.881143-21.065143 116.882286zM671.451429 142.482286s4.242286-84.114286 80.603428-87.186286c0 0 13.312 74.605714-80.603428 87.186286zM754.834286 232.594286s4.242286-84.114286 80.603428-87.186286c0.146286 0 13.312 74.605714-80.603428 87.186286zM786.724571 528.384s81.188571-22.528 108.105143 49.005714c0 0.146286-66.706286 36.132571-108.105143-49.005714zM607.963429 598.601143s72.265143-43.008 117.174857 18.870857c0.146286 0-54.710857 52.370286-117.174857-18.870857zM573.001143 439.442286s4.242286-84.114286 80.603428-87.186286c0 0 13.312 74.605714-80.603428 87.186286zM726.747429 435.346286s30.866286-78.262857 104.301714-56.758857c0 0-11.410286 74.898286-104.301714 56.758857zM602.112 214.162286s56.758857-62.171429 117.76-15.798857c0-0.146286-37.302857 65.828571-117.76 15.798857z" fill="#67AB55" p-id="8354"></path><path d="M616.740571 298.569143s13.604571-83.090286 89.819429-77.677714c0 0 4.827429 75.629714-89.819429 77.677714zM392.923429 328.850286s-84.114286-4.096-87.186286-80.603429c0 0 74.605714-13.312 87.186286 80.603429z" fill="#67AB55" p-id="8355"></path></svg>