<?xml version="1.0" standalone="no"?><!DOCTYPE svg PUBLIC "-//W3C//DTD SVG 1.1//EN" "http://www.w3.org/Graphics/SVG/1.1/DTD/svg11.dtd"><svg t="1548123061112" class="icon" style="" viewBox="0 0 1108 1024" version="1.1" xmlns="http://www.w3.org/2000/svg" p-id="2066" xmlns:xlink="http://www.w3.org/1999/xlink" width="36" height="36"><defs><style type="text/css"></style></defs><path d="M439.649161 817.758527c0 14.969139 13.305901 27.720628 29.383866 27.720628h176.857606c16.077964 0 29.383866-12.197076 29.383866-27.720628 0-14.969139-13.305901-27.720628-29.383866-27.720628H469.033027c-16.632377 0-29.383866 12.197076-29.383866 27.720628z m58.767731 82.053059c0 14.969139 13.305901 27.720628 29.383866 27.720628h58.767731c16.077964 0 29.383866-12.197076 29.383866-27.720628 0-14.969139-13.305901-27.720628-29.383866-27.720628H527.800758c-16.077964 0.554413-29.383866 12.751489-29.383866 27.720628zM292.17542 515.603682c0 136.38549 118.644288 247.268002 265.009204 247.268002s265.009204-110.882512 265.009204-247.268002-118.644288-247.268002-265.009204-247.268003-265.009204 110.882512-265.009204 247.268003z m235.625338-384.207905v54.886843c0 14.969139 13.305901 27.720628 29.383866 27.720629s29.383866-12.197076 29.383865-27.720629v-54.886843c0-14.969139-13.305901-27.720628-29.383865-27.720628s-29.383866 12.197076-29.383866 27.720628z m441.312398 315.460747h-58.767731c-16.077964 0-29.383866 12.197076-29.383866 27.720628 0 14.969139 13.305901 27.720628 29.383866 27.720628h58.767731c16.077964 0 29.383866-12.197076 29.383866-27.720628s-12.751489-27.720628-29.383866-27.720628z m-765.089334 0H145.256091c-16.077964 0-29.383866 12.197076-29.383866 27.720628 0 14.969139 13.305901 27.720628 29.383866 27.720628h58.767731c16.077964 0 29.383866-12.197076 29.383866-27.720628s-13.305901-27.720628-29.383866-27.720628z m632.584732-217.329724l-41.580942 38.808879c-11.642664 10.533839-11.642664 28.275041 0 38.80888s29.938278 10.533839 41.580942 0l41.580942-38.80888c11.642664-10.533839 11.642664-28.275041 0-38.808879-11.088251-10.533839-29.938278-10.533839-41.580942 0z m-558.847861 0c-11.642664-10.533839-29.938278-10.533839-41.580942 0-11.642664 10.533839-11.642664 28.275041 0 38.808879l41.580942 38.80888c11.642664 10.533839 29.938278 10.533839 41.580942 0 11.642664-10.533839 11.642664-28.275041 0-38.80888l-41.580942-38.808879z" fill="#26C281" p-id="2067"></path></svg>