<?xml version="1.0" standalone="no"?><!DOCTYPE svg PUBLIC "-//W3C//DTD SVG 1.1//EN" "http://www.w3.org/Graphics/SVG/1.1/DTD/svg11.dtd"><svg t="1548125069248" class="icon" style="" viewBox="0 0 1280 1024" version="1.1" xmlns="http://www.w3.org/2000/svg" p-id="3654" xmlns:xlink="http://www.w3.org/1999/xlink" width="15" height="15"><defs><style type="text/css"></style></defs><path d="M973.725184 358.4a102.4 102.4 0 0 0 102.4-102.4V102.4a102.4 102.4 0 0 0-204.8 0v153.6a102.4 102.4 0 0 0 102.4 102.4z m-665.6 0a102.4 102.4 0 0 0 102.4-102.4V102.4a102.4 102.4 0 0 0-204.8 0v153.6a102.4 102.4 0 0 0 102.4 102.4z m972.8 256a76.8 76.8 0 0 0-150.528-19.968l-3.072-2.048a563.2 563.2 0 0 1-980.736-16.64h-1.536a76.8 76.8 0 1 0-124.928 87.04 716.8 716.8 0 0 0 1242.368 0A76.8 76.8 0 0 0 1280.925184 614.4z" fill="#FF9F37" p-id="3655"></path></svg>