<?xml version="1.0" standalone="no"?><!DOCTYPE svg PUBLIC "-//W3C//DTD SVG 1.1//EN" "http://www.w3.org/Graphics/SVG/1.1/DTD/svg11.dtd"><svg t="1548204023332" class="icon" style="" viewBox="0 0 1024 1024" version="1.1" xmlns="http://www.w3.org/2000/svg" p-id="2019" xmlns:xlink="http://www.w3.org/1999/xlink" width="32" height="32"><defs><style type="text/css"></style></defs><path d="M512 64.274886 512 64.274886c-175.892009 0-319.803653 143.911644-319.803653 319.803653 0 0-1.472538 50.261731 32.701796 88.750323s94.551446 35.660174 94.551446 35.660174l0-63.960731c0 0-35.165918 2.25639-51.353598-19.968797-16.186657-22.224164-11.938913-40.48097-11.938913-40.48097 0-141.29812 114.544803-255.842922 255.842922-255.842922l0 0c119.215172 0 219.386616 81.540108 247.784386 191.891402 2.781346 10.80816 25.651216 17.485233 41.545208 11.466146 14.163581-5.363148 21.943778-22.072715 18.169825-35.217083C781.13567 162.766061 657.512095 64.274886 512 64.274886z" p-id="2020"></path><path d="M831.803653 444.528306 319.703369 444.528306l-0.25378 0 0 63.960731 0.205685 0 511.85776 0c35.32453 0 63.960731 28.636201 63.960731 63.960731l0 255.842922c0 35.32453-28.636201 63.960731-63.960731 63.960731L192.486966 892.25342c-35.32453 0-63.960731-28.636201-63.960731-63.960731L128.526235 635.894751c0-12.531408 3.604084-24.220634 9.830903-34.088376 5.664-8.974395 2.02103-30.05962-10.910491-40.017412-12.932544-9.957793-35.155684-8.789177-46.186925 10.369162-3.025916 5.254677-5.688559 10.744715-7.955182 16.436344-5.825682 14.631232-9.029654 30.591739-9.029654 47.300282l0 192.397938c0 70.64906 57.272401 127.921461 127.921461 127.921461l639.606283 0c70.64906 0 127.921461-57.272401 127.921461-127.921461L959.724091 572.449767C959.724091 501.800707 902.45169 444.528306 831.803653 444.528306z" p-id="2021"></path><path d="M607.941096 639.742383 416.058904 639.742383c-17.662265 0-31.980365-14.3181-31.980365-31.980365l0 0c0-17.662265 14.3181-31.980365 31.980365-31.980365l191.882192 0c17.662265 0 31.980365 14.3181 31.980365 31.980365l0 0C639.921461 625.424282 625.603361 639.742383 607.941096 639.742383z" p-id="2022"></path><path d="M543.980365 607.762017l0 191.882192c0 17.662265-14.3181 31.980365-31.980365 31.980365l0 0c-17.662265 0-31.980365-14.3181-31.980365-31.980365L480.019635 607.762017c0-17.662265 14.3181-31.980365 31.980365-31.980365l0 0C529.662265 575.781652 543.980365 590.099752 543.980365 607.762017z" p-id="2023"></path></svg>