<?xml version="1.0" standalone="no"?><!DOCTYPE svg PUBLIC "-//W3C//DTD SVG 1.1//EN" "http://www.w3.org/Graphics/SVG/1.1/DTD/svg11.dtd"><svg t="1548032602631" class="icon" style="" viewBox="0 0 1024 1024" version="1.1" xmlns="http://www.w3.org/2000/svg" p-id="2163" xmlns:xlink="http://www.w3.org/1999/xlink" width="36" height="36"><defs><style type="text/css"></style></defs><path d="M544.476033 1.013396C237.580052-18.167603-18.166599 237.579048 1.0144 544.475029c12.787333 255.746651 223.77832 460.343972 473.131304 473.131305 306.895981 19.180999 562.642632-236.565652 543.461634-543.461634C1004.820005 224.791716 800.222684 20.194395 544.476033 1.013396z" fill="#EEE9FD" p-id="2164"></path><path d="M212.005387 883.339342h601.00463v6.393666H212.005387z" fill="#3C35E3" p-id="2165"></path><path d="M212.005387 876.945676h601.00463v6.393666H212.005387z" fill="#3C36E3" p-id="2166"></path><path d="M212.005387 870.552009h601.00463v6.393667H212.005387z" fill="#3D37E3" p-id="2167"></path><path d="M212.005387 864.158343h601.00463v6.393666H212.005387z" fill="#3D38E4" p-id="2168"></path><path d="M212.005387 851.371011h601.00463v6.393666H212.005387z" fill="#3D39E4" p-id="2169"></path><path d="M212.005387 844.977344h601.00463v6.393667H212.005387z" fill="#3E3AE4" p-id="2170"></path><path d="M212.005387 838.583678h601.00463v6.393666H212.005387z" fill="#3E3BE4" p-id="2171"></path><path d="M212.005387 825.796345h601.00463v6.393667H212.005387z" fill="#3E3CE5" p-id="2172"></path><path d="M212.005387 819.402679h601.00463v6.393666H212.005387z" fill="#3E3DE5" p-id="2173"></path><path d="M212.005387 813.009013h601.00463v6.393666H212.005387z" fill="#3F3EE5" p-id="2174"></path><path d="M212.005387 806.615347h601.00463v6.393666H212.005387z" fill="#3F3FE5" p-id="2175"></path><path d="M212.005387 793.828014h601.00463v6.393666H212.005387z" fill="#3F40E5" p-id="2176"></path><path d="M212.005387 787.434348h601.00463v6.393666H212.005387z" fill="#4041E6" p-id="2177"></path><path d="M212.005387 781.040682h601.00463v6.393666H212.005387z" fill="#4042E6" p-id="2178"></path><path d="M212.005387 774.647015h601.00463v6.393667H212.005387z" fill="#4043E6" p-id="2179"></path><path d="M212.005387 761.859683h601.00463v6.393666H212.005387z" fill="#4144E6" p-id="2180"></path><path d="M212.005387 755.466016h601.00463v6.393667H212.005387z" fill="#4145E6" p-id="2181"></path><path d="M212.005387 749.07235h601.00463v6.393666H212.005387z" fill="#4146E7" p-id="2182"></path><path d="M212.005387 736.285018h601.00463v6.393666H212.005387z" fill="#4247E7" p-id="2183"></path><path d="M212.005387 729.891351h601.00463v6.393667H212.005387z" fill="#4248E7" p-id="2184"></path><path d="M212.005387 723.497685h601.00463v6.393666H212.005387z" fill="#4249E7" p-id="2185"></path><path d="M212.005387 717.104019h601.00463v6.393666H212.005387z" fill="#434AE8" p-id="2186"></path><path d="M212.005387 704.316686h601.00463v6.393667H212.005387z" fill="#434BE8" p-id="2187"></path><path d="M212.005387 697.92302h601.00463v6.393666H212.005387z" fill="#434CE8" p-id="2188"></path><path d="M212.005387 691.529354h601.00463v6.393666H212.005387z" fill="#434DE8" p-id="2189"></path><path d="M212.005387 685.135687h601.00463v6.393667H212.005387z" fill="#444EE8" p-id="2190"></path><path d="M212.005387 672.348355h601.00463v6.393666H212.005387z" fill="#444FE9" p-id="2191"></path><path d="M212.005387 665.954689h601.00463v6.393666H212.005387z" fill="#4450E9" p-id="2192"></path><path d="M212.005387 659.561022h601.00463v6.393667H212.005387z" fill="#4551E9" p-id="2193"></path><path d="M212.005387 653.167356h601.00463v6.393666H212.005387z" fill="#4552E9" p-id="2194"></path><path d="M212.005387 640.380024h601.00463v6.393666H212.005387z" fill="#4553E9" p-id="2195"></path><path d="M212.005387 633.986357h601.00463v6.393667H212.005387z" fill="#4654EA" p-id="2196"></path><path d="M212.005387 627.592691h601.00463v6.393666H212.005387z" fill="#4655EA" p-id="2197"></path><path d="M212.005387 614.805358h601.00463v6.393667H212.005387z" fill="#4656EA" p-id="2198"></path><path d="M212.005387 608.411692h601.00463v6.393666H212.005387z" fill="#4757EA" p-id="2199"></path><path d="M212.005387 602.018026h601.00463v6.393666H212.005387z" fill="#4758EB" p-id="2200"></path><path d="M212.005387 595.62436h601.00463v6.393666H212.005387z" fill="#4759EB" p-id="2201"></path><path d="M212.005387 582.837027h601.00463v6.393666H212.005387z" fill="#485AEB" p-id="2202"></path><path d="M212.005387 576.443361h601.00463v6.393666H212.005387z" fill="#485BEB" p-id="2203"></path><path d="M212.005387 570.049695h601.00463V576.443361H212.005387z" fill="#485CEB" p-id="2204"></path><path d="M212.005387 563.656028h601.00463v6.393667H212.005387z" fill="#485DEC" p-id="2205"></path><path d="M212.005387 550.868696h601.00463v6.393666H212.005387z" fill="#495EEC" p-id="2206"></path><path d="M212.005387 544.475029h601.00463v6.393667H212.005387z" fill="#495FEC" p-id="2207"></path><path d="M212.005387 538.081363h601.00463v6.393666H212.005387z" fill="#4960EC" p-id="2208"></path><path d="M212.005387 531.687697h601.00463v6.393666H212.005387z" fill="#4A61EC" p-id="2209"></path><path d="M212.005387 518.900364h601.00463v6.393667H212.005387z" fill="#4A62ED" p-id="2210"></path><path d="M212.005387 512.506698h601.00463v6.393666H212.005387z" fill="#4A63ED" p-id="2211"></path><path d="M212.005387 506.113032h601.00463V512.506698H212.005387z" fill="#4B65ED" p-id="2212"></path><path d="M212.005387 493.325699h601.00463v6.393667H212.005387z" fill="#4B66ED" p-id="2213"></path><path d="M212.005387 486.932033h601.00463v6.393666H212.005387z" fill="#4B67EE" p-id="2214"></path><path d="M212.005387 480.538367h601.00463v6.393666H212.005387z" fill="#4C68EE" p-id="2215"></path><path d="M212.005387 474.1447h601.00463v6.393667H212.005387z" fill="#4C69EE" p-id="2216"></path><path d="M212.005387 461.357368h601.00463v6.393666H212.005387z" fill="#4C6AEE" p-id="2217"></path><path d="M212.005387 454.963702h601.00463v6.393666H212.005387z" fill="#4D6BEE" p-id="2218"></path><path d="M212.005387 448.570035h601.00463v6.393667H212.005387z" fill="#4D6CEF" p-id="2219"></path><path d="M212.005387 442.176369h601.00463V448.570035H212.005387z" fill="#4D6DEF" p-id="2220"></path><path d="M212.005387 429.389036h601.00463v6.393667H212.005387z" fill="#4D6EEF" p-id="2221"></path><path d="M212.005387 422.99537h601.00463v6.393666H212.005387z" fill="#4E6FEF" p-id="2222"></path><path d="M212.005387 416.601704h601.00463v6.393666H212.005387z" fill="#4E70EF" p-id="2223"></path><path d="M212.005387 410.208038h601.00463v6.393666H212.005387z" fill="#4E71F0" p-id="2224"></path><path d="M212.005387 397.420705h601.00463v6.393666H212.005387z" fill="#4F72F0" p-id="2225"></path><path d="M212.005387 391.027039h601.00463v6.393666H212.005387z" fill="#4F73F0" p-id="2226"></path><path d="M212.005387 384.633373h601.00463v6.393666H212.005387z" fill="#4F74F0" p-id="2227"></path><path d="M212.005387 371.84604h601.00463v6.393666H212.005387z" fill="#5075F1" p-id="2228"></path><path d="M212.005387 365.452374h601.00463v6.393666H212.005387z" fill="#5076F1" p-id="2229"></path><path d="M212.005387 359.058707h601.00463v6.393667H212.005387z" fill="#5077F1" p-id="2230"></path><path d="M212.005387 352.665041h601.00463v6.393666H212.005387z" fill="#5178F1" p-id="2231"></path><path d="M212.005387 339.877709h601.00463v6.393666H212.005387z" fill="#5179F1" p-id="2232"></path><path d="M212.005387 333.484042h601.00463v6.393667H212.005387z" fill="#517AF2" p-id="2233"></path><path d="M212.005387 327.090376h601.00463v6.393666H212.005387z" fill="#527BF2" p-id="2234"></path><path d="M212.005387 320.69671h601.00463v6.393666H212.005387z" fill="#527CF2" p-id="2235"></path><path d="M212.005387 307.909377h601.00463v6.393667H212.005387z" fill="#527DF2" p-id="2236"></path><path d="M212.005387 301.515711h601.00463v6.393666H212.005387z" fill="#527EF2" p-id="2237"></path><path d="M212.005387 295.122045h601.00463v6.393666H212.005387z" fill="#537FF3" p-id="2238"></path><path d="M212.005387 288.728378h601.00463v6.393667H212.005387z" fill="#5380F3" p-id="2239"></path><path d="M212.005387 275.941046h601.00463v6.393666H212.005387z" fill="#5381F3" p-id="2240"></path><path d="M212.005387 269.54738h601.00463v6.393666H212.005387z" fill="#5482F3" p-id="2241"></path><path d="M212.005387 263.153713h601.00463v6.393667H212.005387z" fill="#5483F4" p-id="2242"></path><path d="M212.005387 250.366381h601.00463V256.760047H212.005387z" fill="#5484F4" p-id="2243"></path><path d="M212.005387 243.972715h601.00463v6.393666H212.005387z" fill="#5585F4" p-id="2244"></path><path d="M212.005387 237.579048h601.00463v6.393667H212.005387z" fill="#5586F4" p-id="2245"></path><path d="M212.005387 231.185382h601.00463v6.393666H212.005387z" fill="#5587F4" p-id="2246"></path><path d="M212.005387 218.398049h601.00463v6.393667H212.005387z" fill="#5688F5" p-id="2247"></path><path d="M212.005387 212.004383h601.00463v6.393666H212.005387z" fill="#5689F5" p-id="2248"></path><path d="M212.005387 205.610717h601.00463v6.393666H212.005387z" fill="#568AF5" p-id="2249"></path><path d="M212.005387 199.217051h601.00463v6.393666H212.005387z" fill="#578BF5" p-id="2250"></path><path d="M212.005387 186.429718h601.00463V192.823384H212.005387z" fill="#578CF5" p-id="2251"></path><path d="M212.005387 180.036052h601.00463v6.393666H212.005387z" fill="#578DF6" p-id="2252"></path><path d="M212.005387 173.642386h601.00463v6.393666H212.005387z" fill="#578EF6" p-id="2253"></path><path d="M212.005387 160.855053h601.00463v6.393666H212.005387z" fill="#588FF6" p-id="2254"></path><path d="M212.005387 154.461387h601.00463v6.393666H212.005387z" fill="#5890F6" p-id="2255"></path><path d="M212.005387 148.06772h601.00463v6.393667H212.005387z" fill="#5891F7" p-id="2256"></path><path d="M212.005387 141.674054h601.00463v6.393666H212.005387z" fill="#5992F7" p-id="2257"></path><path d="M212.005387 128.886722h601.00463v6.393666H212.005387z" fill="#5993F7" p-id="2258"></path><path d="M435.783707 128.886722v767.239953h-57.542997V128.886722" fill="#F5C73E" p-id="2259"></path><path d="M378.24071 128.886722H384.634376v760.846286h-6.393666z" fill="#FFFFFF" p-id="2260"></path><path d="M435.783707 128.886722h6.393666v760.846286h-6.393666z" fill="#FFFFFF" p-id="2261"></path><path d="M813.010017 454.963702H212.005387v-57.542997h601.00463" fill="#F5C73E" p-id="2262"></path><path d="M212.005387 397.420705h601.00463v6.393666H212.005387zM212.005387 454.963702h601.00463v6.393666H212.005387z" fill="#FFFFFF" p-id="2263"></path><path d="M480.539371 557.262362c-6.393666 0-12.787333 0-12.787333-6.393666l-51.14933-76.723996h-12.787333-6.393666l-57.542996 76.723996c-6.393666 6.393666-12.787333 6.393666-25.574666 0-6.393666 0-6.393666-12.787333 0-19.180999l38.361998-51.14933c-51.14933-12.787333-83.117662-25.574665-102.29866-51.149331-12.787333-19.180999-6.393666-38.361998-6.393667-44.755663 6.393666-38.361998 19.180999-57.542996 44.755664-63.936663 31.968331-12.787333 70.330329 12.787333 89.511328 38.361997l19.180999 19.180999 12.787333 19.180999 19.180998-31.968331c19.180999-19.180999 31.968331-38.361998 51.149331-51.14933 25.574665-12.787333 44.755664-19.180999 63.936662-12.787333 6.393666 0 19.180999 12.787333 31.968332 25.574665 12.787333 31.968331 6.393666 70.330329-25.574665 95.904994-12.787333 12.787333-25.574665 19.180999-38.361998 25.574665-12.787333 12.787333-31.968331 19.180999-51.14933 25.574665l38.361997 57.542997c6.393666 6.393666 6.393666 19.180999-6.393666 25.574665h-12.787332zM301.516715 352.665041c-12.787333 6.393666-19.180999 19.180999-19.180999 38.361998v6.393666s0 6.393666 6.393666 12.787333 25.574665 25.574665 95.904994 25.574665v-6.393667l-19.180998-31.968331c0-6.393666-6.393666-6.393666-12.787333-12.787332-19.180999-19.180999-38.361998-31.968331-51.14933-31.968332z m127.873325 76.723995l6.393667 12.787333c19.180999 0 38.361998-6.393666 57.542996-19.180999 12.787333-6.393666 25.574665-19.180999 31.968331-25.574665 19.180999-12.787333 25.574665-38.361998 19.180999-51.14933 0-6.393666-6.393666-6.393666-6.393666-6.393666s-12.787333 0-31.968331 12.787332c-19.180999 6.393666-31.968331 19.180999-44.755664 31.968332l-31.968332 44.755663z" fill="#FF3B5C" p-id="2264"></path><path d="M480.539371 557.262362c-6.393666 0-12.787333 0-12.787333-6.393666l-51.14933-76.723996h-12.787333-6.393666l-57.542996 76.723996c-6.393666 6.393666-12.787333 6.393666-25.574666 0-6.393666 0-6.393666-12.787333 0-19.180999l38.361998-51.14933c-51.14933-12.787333-83.117662-25.574665-102.29866-51.149331-12.787333-19.180999-6.393666-38.361998-6.393667-44.755663 6.393666-38.361998 19.180999-57.542996 44.755664-63.936663 31.968331-12.787333 70.330329 12.787333 89.511328 38.361997l19.180999 19.180999 12.787333 19.180999 19.180998-31.968331c19.180999-19.180999 31.968331-38.361998 51.149331-51.14933 25.574665-12.787333 44.755664-19.180999 63.936662-12.787333 6.393666 0 19.180999 12.787333 31.968332 25.574665 12.787333 31.968331 6.393666 70.330329-25.574665 95.904994-12.787333 12.787333-25.574665 19.180999-38.361998 25.574665-12.787333 12.787333-31.968331 19.180999-51.14933 25.574665l38.361997 57.542997c6.393666 6.393666 6.393666 19.180999-6.393666 25.574665h-12.787332zM301.516715 352.665041c-12.787333 6.393666-19.180999 19.180999-19.180999 38.361998v6.393666s0 6.393666 6.393666 12.787333 25.574665 25.574665 95.904994 25.574665v-6.393667l-19.180998-31.968331c0-6.393666-6.393666-6.393666-12.787333-12.787332-19.180999-19.180999-38.361998-31.968331-51.14933-31.968332z m127.873325 76.723995l6.393667 12.787333c19.180999 0 38.361998-6.393666 57.542996-19.180999 12.787333-6.393666 25.574665-19.180999 31.968331-25.574665 19.180999-12.787333 25.574665-38.361998 19.180999-51.14933 0-6.393666-6.393666-6.393666-6.393666-6.393666s-12.787333 0-31.968331 12.787332c-19.180999 6.393666-31.968331 19.180999-44.755664 31.968332l-31.968332 44.755663z" fill="#FF3B5C" p-id="2265"></path><path d="M480.539371 557.262362c-6.393666 0-12.787333-6.393666-19.180999-6.393666l-44.755664-70.330329h-12.787333-6.393666l-51.14933 70.330329c-6.393666 6.393666-19.180999 12.787333-31.968332 6.393666-6.393666 0-6.393666-6.393666-6.393666-12.787333s0-12.787333 6.393666-12.787332l38.361998-51.14933c-51.14933-12.787333-83.117662-25.574665-102.29866-44.755664-12.787333-25.574665-6.393666-44.755664-6.393667-51.14933 6.393666-38.361998 19.180999-57.542996 44.755664-63.936663 31.968331-12.787333 70.330329 12.787333 95.904994 38.361997 0 6.393666 6.393666 12.787333 12.787333 19.180999l12.787333 19.180999 19.180998-25.574665c12.787333-19.180999 31.968331-38.361998 51.149331-51.14933 25.574665-12.787333 44.755664-19.180999 63.936662-12.787333 6.393666 0 25.574665 12.787333 31.968332 31.968332 12.787333 31.968331 6.393666 70.330329-25.574665 95.904994-12.787333 0-25.574665 6.393666-38.361998 12.787332-12.787333 12.787333-31.968331 19.180999-51.14933 25.574665l38.361997 51.149331c0 6.393666 6.393666 12.787333 0 12.787332s0 12.787333-6.393666 19.180999h-12.787332zM397.421709 474.1447h25.574665l51.14933 70.330329c0 6.393666 6.393666 6.393666 12.787333 6.393667h6.393666c6.393666 0 6.393666-6.393666 6.393666-12.787333v-12.787332l-44.755664-51.149331c25.574665-6.393666 44.755664-12.787333 57.542997-25.574665 12.787333-6.393666 25.574665-19.180999 38.361998-25.574665 25.574665-19.180999 38.361998-57.542996 25.574665-89.511328-12.787333-19.180999-19.180999-25.574665-31.968332-31.968331-19.180999-6.393666-38.361998 0-63.936662 12.787333l-51.149331 51.14933-19.180998 31.968331-19.180999-19.180999c0-6.393666-6.393666-12.787333-12.787333-19.180999-19.180999-19.180999-57.542996-44.755664-89.511328-38.361997-19.180999 6.393666-38.361998 31.968331-44.755664 63.936663 0 6.393666-6.393666 25.574665 6.393667 44.755663 12.787333 25.574665 51.14933 38.361998 95.904994 44.755664l-31.968332 57.542997c0 6.393666-6.393666 6.393666 0 12.787332 0 6.393666 0 6.393666 6.393667 12.787333s19.180999 6.393666 25.574665-6.393666l51.14933-76.723996z m-19.180999-31.968331c-70.330329-6.393666-89.511328-19.180999-95.904994-31.968331-6.393666-6.393666-6.393666-12.787333-6.393666-12.787333v-6.393666c6.393666-25.574665 12.787333-38.361998 19.180999-38.361998 19.180999-6.393666 38.361998 6.393666 63.936662 31.968332 0 0 6.393666 6.393666 6.393667 12.787332l19.180998 31.968331-6.393666 12.787333zM301.516715 352.665041c-12.787333 0-19.180999 19.180999-19.180999 38.361998v6.393666s0 6.393666 6.393666 12.787333 25.574665 25.574665 89.511328 25.574665l6.393666-6.393667-19.180998-31.968331c0-6.393666-6.393666-6.393666-12.787333-12.787332-19.180999-19.180999-38.361998-31.968331-51.14933-31.968332z m134.266992 89.511328l-6.393667-12.787333 31.968332-44.755663c12.787333-19.180999 25.574665-31.968331 44.755664-38.361998 19.180999-12.787333 31.968331-12.787333 31.968331-12.787333s6.393666 0 6.393666 6.393667c6.393666 19.180999 0 38.361998-12.787332 51.14933-12.787333 12.787333-25.574665 25.574665-38.361998 31.968331-12.787333 6.393666-31.968331 19.180999-57.542996 19.180999z m-6.393667-12.787333l6.393667 6.393667c19.180999 0 38.361998-6.393666 57.542996-19.180999 12.787333-6.393666 25.574665-12.787333 31.968331-25.574665 19.180999-6.393666 25.574665-31.968331 12.787333-44.755664 0-6.393666-6.393666-6.393666-6.393666-6.393666s-12.787333 0-31.968332 12.787332c-12.787333 6.393666-25.574665 19.180999-38.361997 38.361998l-31.968332 38.361997z" fill="#FFFFFF" p-id="2266"></path></svg>