<?xml version="1.0" standalone="no"?><!DOCTYPE svg PUBLIC "-//W3C//DTD SVG 1.1//EN" "http://www.w3.org/Graphics/SVG/1.1/DTD/svg11.dtd"><svg t="1548001706030" class="icon" style="" viewBox="0 0 1035 1024" version="1.1" xmlns="http://www.w3.org/2000/svg" p-id="6738" xmlns:xlink="http://www.w3.org/1999/xlink" width="36.515625" height="36"><defs><style type="text/css"></style></defs><path d="M941.240525 188.93413h-42.239079c18.106532-24.132546 30.172805-60.359857 24.132546-90.50417 0-24.132546-12.066273-54.305352-54.305351-78.437898-30.15856-24.132546-72.397638-24.132546-120.66273-12.066273-78.437898 18.078041-168.942068 90.504171-229.273434 168.942068C458.546866 98.42996 368.056942 26.00383 289.619044 7.925789c-48.265092-12.066273-90.504171-6.026014-120.676976 12.066273-36.198819 24.132546-48.265092 60.331365-54.305351 78.437898-6.040259 36.198819 12.066273 66.371625 24.132546 90.50417H96.54443C42.239079 188.93413 0 231.144717 0 285.464314v126.70299c0 12.066273 0 24.132546 6.026014 30.172806h476.653398V182.893871h66.371625V442.34011H1025.704436c6.040259-12.066273 6.040259-18.106532 6.040259-30.172806v-126.70299c6.026014-54.305352-36.198819-96.54443-90.50417-96.54443z m-711.967092 0c-12.066273-12.066273-48.265092-54.305352-42.224832-84.463911 0-6.026014 6.026014-18.106532 24.132546-30.172805s42.239079-12.066273 72.397638-6.026014c60.331365 12.052027 126.70299 66.357379 174.968081 126.688744H229.273433z m591.290116 0H597.330375c48.265092-60.359857 120.66273-108.610703 174.968082-126.702989 30.172805-6.040259 54.305352-6.040259 72.397638 6.026013s24.132546 24.132546 24.132546 30.172806c-6.026014 36.198819-36.198819 78.437898-48.265092 90.50417zM84.478157 508.711734c-6.040259 12.066273-6.040259 18.106532-6.040259 30.15856v386.149228c0 54.305352 42.239079 96.54443 96.530184 96.54443H494.759931v-512.852218z m790.390743 0H555.091296v512.852218h319.777604c54.305352 0 96.54443-42.239079 96.54443-96.54443V538.856048c0-12.066273 0-24.132546-6.040259-30.15856z m0 0" p-id="6739"></path></svg>