<?xml version="1.0" standalone="no"?><!DOCTYPE svg PUBLIC "-//W3C//DTD SVG 1.1//EN" "http://www.w3.org/Graphics/SVG/1.1/DTD/svg11.dtd"><svg t="1547706646592" class="icon" style="" viewBox="0 0 1024 1024" version="1.1" xmlns="http://www.w3.org/2000/svg" p-id="4022" xmlns:xlink="http://www.w3.org/1999/xlink" width="32" height="32"><defs><style type="text/css"></style></defs><path d="M511.658667 30.72c-144.384 0-261.461333 117.077333-261.461334 261.461333s117.077333 261.461333 261.461334 261.461334 261.461333-117.077333 261.461333-261.461334S656.042667 30.72 511.658667 30.72z m-3.072 428.032c-116.053333 0-116.053333-94.549333-116.053334-94.549333h237.909334s-5.802667 94.549333-121.856 94.549333zM856.405333 993.28c36.181333 0 64.853333-32.426667 59.050667-67.925333-32.426667-193.877333-200.704-341.333333-403.797333-341.333334s-371.370667 147.797333-403.797334 341.333334c-6.144 35.84 22.528 67.925333 59.050667 67.925333h689.493333z" fill="" p-id="4023"></path></svg>