<?xml version="1.0" standalone="no"?><!DOCTYPE svg PUBLIC "-//W3C//DTD SVG 1.1//EN" "http://www.w3.org/Graphics/SVG/1.1/DTD/svg11.dtd"><svg t="1548075449529" class="icon" style="" viewBox="0 0 1024 1024" version="1.1" xmlns="http://www.w3.org/2000/svg" p-id="5868" xmlns:xlink="http://www.w3.org/1999/xlink" width="32" height="32"><defs><style type="text/css"></style></defs><path d="M511.67844016 286.23992444c29.3509388 0 58.08039195 5.58648742 85.1258353 16.58196518 28.02044813 11.34998025 53.20340121 28.10944252 74.83936252 49.65640946 21.63596132 21.63596132 38.30692088 46.81891441 49.65640947 74.83936253 10.99547777 27.13394603 16.58196517 55.77489648 16.58196517 85.12583528s-5.58648742 58.08039195-16.58196517 85.1253436c-11.34998025 28.02093982-28.10895083 53.20340121-49.65640947 74.83936253-21.63596132 21.636453-46.81891441 38.30692088-74.83936252 49.65690115-27.13394603 10.99547777-55.77489648 16.5814735-85.12583529 16.58147348s-58.08039195-5.58599574-85.12534359-16.58147348c-28.02093982-11.34998025-53.20340121-28.10944252-74.83936255-49.65690115-21.636453-21.63596132-38.30692088-46.81891441-49.65690114-74.83887085-10.99498608-27.13443772-16.5814735-55.77538816-16.58147348-85.12583528S291.06184682 454.36310494 302.05683289 427.31766162c11.35047193-28.02044813 28.10944252-53.20340121 49.65690114-74.83936254 21.63596132-21.63596132 46.81891441-38.30692088 74.83936255-49.65640946C453.59804822 291.82641187 482.23949035 286.23943276 511.67844016 286.23943276z m0-25.18295307c-64.37588438 0-128.66326603 24.56245077-177.78816757 73.68686064-98.16031703 98.16031703-98.16031703 257.23852106 0 355.39883808C382.92617973 739.26757164 447.3025558 763.74102802 511.58993746 763.74102802s128.66326603-24.56245077 177.6996649-73.59835793c98.16031703-98.16031703 98.16031703-257.32702376 0-355.48734077C640.34268958 285.61942214 575.96631352 261.05697137 511.67844016 261.05697137m0.3549942 121.56977423c-23.675457 0-42.74041474 6.38448683-57.19388986 19.06495773-14.36497241 12.76897362-23.0549547 31.03494862-25.98095246 54.97689709l32.36543928 3.81249986c2.83749506-17.91196417 8.68998227-30.94644592 17.73446706-39.37042839 8.95598208-8.4239825 20.21745964-12.59147654 33.60644387-12.59147654 13.9219672 0 25.62644996 4.69949365 35.20342605 13.92147552 9.57648438 9.22198187 14.36497241 20.03996255 14.36497242 32.27693657 0 6.73898932-1.68499317 13.03448174-4.87748245 18.70996357-3.28050028 5.67499013-10.37448377 13.38947593-21.28096713 22.96645198-10.90697505 9.66498709-18.44396376 16.93597599-22.6114578 21.99046384-5.67499013 6.91648642-9.84248418 13.74397842-12.41397945 20.48345942-3.45848903 8.9554904-5.23149323 19.68496836-5.23149322 32.01044508 0 2.12799837 0.08850271 5.23149323 0.1770054 9.48798168h30.23744089c0.26550812-12.59147654 1.06399919-21.72446403 2.659998-27.31095144 1.50749608-5.58648742 3.90149425-10.55198087 7.0049891-14.89697201s9.84297586-10.99547777 20.12895691-20.12895693c15.25147451-13.56648135 25.53745558-25.00545598 30.7694405-34.49343765 5.23149323-9.39898729 7.89149121-19.77396275 7.89149121-30.94644591 0-19.33095754-7.448486-35.91243103-22.4339607-49.56790675-15.07446909-13.56697302-35.02592894-20.39495673-60.11988762-20.39495672m-0.2659998 220.97158753c-10.64097525 0-19.33095754 8.60147958-19.33095753 19.33095753 0 10.64048357 8.60147958 19.33046586 19.33095753 19.33046584 10.64048357 0 19.33046586-8.6009879 19.33046584-19.33046584-0.08850271-10.64097525-8.68998227-19.33046586-19.33046584-19.33046585" fill="#1296db" p-id="5869"></path></svg>